<svg width="400" height="400" viewBox="0 0 400 400" fill="none" xmlns="http://www.w3.org/2000/svg">
<rect width="400" height="400" fill="white"/>
<path d="M306.345 222.218C314.1 213.701 319.763 205.412 325.918 195.67C328.061 192.279 335.277 177.948 338.238 177.058C343.957 175.338 345.837 180.209 345.134 185.12C343.416 197.1 328.118 218.601 320.152 227.901C254.465 304.589 113.814 311.503 61.094 215.918C56.2429 207.122 48.2824 189.858 46.6157 180.189C46.2997 178.353 45.7229 175.899 47.785 174.858C49.4893 174.42 51.0488 178.715 51.5427 180.016C52.9416 183.695 53.8928 187.92 55.3554 191.703C97.191 299.855 235.246 300.311 306.345 222.218Z" fill="#04203E"/>
<path d="M354.962 175.171C354.251 174.386 353.617 172.485 352.666 171.327C350.205 168.336 347.363 166.571 343.688 165.413C341.397 164.69 333.381 163.92 332.566 163.281C331.826 162.702 331.903 161.277 332.135 160.403C340.584 155.817 354.493 159.93 360.611 167.026C366.237 173.55 358.901 179.522 354.962 175.171Z" fill="#04203E"/>
<path d="M56.2813 159.112C55.0936 160.148 48.7642 161.323 46.7562 162.05C44.8302 162.747 38.3079 167.529 38.0086 163.157C37.6071 157.292 51.4162 152.871 56.112 156.077C57.154 156.789 57.1854 158.323 56.2813 159.112Z" fill="#04203E"/>
</svg>
